<svg width="287" height="351" viewBox="0 0 287 351" fill="none" xmlns="http://www.w3.org/2000/svg">
<path d="M24.0031 24.003C24.5106 27.571 27.571 35.7527 30.147 46.0029C33.5434 59.5175 33.7227 71.1247 36.5524 82.1438C39.9398 95.3344 47.5331 114.648 52.1853 125.474C56.8007 136.216 62.943 151.065 70.6172 162.115C81.3901 177.627 91.1175 189.513 101.368 200.055C114.906 213.98 133.103 224.393 143.929 229.045C153.224 233.039 166.937 237.25 181.847 240.579C192.252 242.903 200.309 246.477 217.734 249.538C240.852 253.598 181.947 278.743 148.705 309.932C139.09 318.952 134.748 323.358 132.441 326.187C127.434 332.329 140.331 300.919 151.834 268.977C167.4 225.756 183.408 194.757 188.014 185.807C195.596 171.072 198.802 160.416 200.855 151.681C201.341 149.613 201.878 147.59 202.139 147.559C213.489 146.224 213.628 183.331 225.677 203.608C237.091 222.815 249.522 231.59 255.697 239.28C256.735 241.341 257.243 243.371 258.266 245.432C259.288 247.492 260.811 249.522 262.379 253.152" stroke="black" stroke-width="48" stroke-linecap="round"/>
</svg>
