<svg width="620" height="369" viewBox="0 0 620 369" fill="none" xmlns="http://www.w3.org/2000/svg">
<path d="M248.374 24.0026C242.758 27.7275 229.636 39.0154 215.033 49.3578C201.26 59.1119 179.801 56.0036 154.417 52.7018C138.613 50.646 124.265 55.0158 114.402 60.6456C109.946 63.1889 107.333 66.2754 105.894 70.5084C104.455 74.7413 104.455 80.3287 106.783 84.6039C111.535 93.3311 122.289 95.4825 129.796 96.8935C133.542 97.5977 137.302 97.3733 139.221 95.0452C141.14 92.7171 141.14 88.0609 139.277 85.1966C135.595 79.5338 123.334 80.4415 111.594 81.3727C94.3569 82.7401 81.0326 100.139 62.1961 125C48.789 142.695 47.0846 160.359 46.6049 167.865C46.362 171.666 48.9189 175.372 51.7408 178.222C57.4164 183.954 73.3004 184.854 87.904 184.388C100.865 183.975 55.6068 179.21 44.3331 180.606C28.1325 182.614 25.4967 212.96 24.0152 243.536C23.7079 249.878 28.2058 252.524 31.5075 254.429C48.6731 264.332 90.1193 261.046 111.467 254.499C114.999 253.416 114.783 247.952 112.469 246.964C110.155 245.977 104.568 247.839 99.8267 250.661C95.0858 253.483 91.3609 257.208 89.442 266.111C84.6062 288.548 90.3168 306.169 96.4121 311.333C109.429 322.361 128.836 322.169 161.232 322.198C175.173 322.21 184.372 315.622 190.947 310.007C198.903 303.212 199.441 290.253 200.866 285.992C203.023 279.544 193.826 301.456 192.88 308.963C191.935 316.465 197.551 323.1 203.646 328.265C209.905 333.567 218.236 337.21 231.329 341.443C254.462 348.922 274.674 339.157 281.249 331.651C294.557 316.458 298.209 294.035 301.497 286.02C305.548 276.145 313.222 310.825 336.687 324.963C361.769 340.076 383.714 334.416 403.045 328.801C411.518 326.339 417.662 320.335 422.361 314.24C426.987 308.238 426.156 291.269 425.691 274.789C425.567 270.392 424.294 274.14 423.814 278.852C423.334 283.565 423.334 289.153 426.594 295.29C440.346 321.187 463.688 320.307 494.701 327.333C517.826 332.573 542.646 331.595 561.553 321.294C575.691 311.869 583.226 302.472 586.979 294.966C588.87 291.184 590.732 287.459 595.473 277.978" stroke="black" stroke-width="48" stroke-linecap="round"/>
</svg>
