<svg width="791" height="688" viewBox="0 0 791 688" fill="none" xmlns="http://www.w3.org/2000/svg">
<path d="M90.7597 24.0062C87.1918 25.0212 79.0101 30.127 68.7599 40.1081C55.3572 53.1589 47.7289 60.8853 39.7857 69.5899C28.0723 82.426 26.6904 96.7494 24.891 110.568C21.0462 140.094 29.7354 152.637 48.8978 186.625C64.6154 214.503 92.2054 234.116 108.384 243.897C117.191 249.221 130.161 251.602 145.748 254.67C163.784 258.22 190.555 259.307 221.259 257.784C263.64 255.683 286.967 234.27 305.498 218.86C318.354 208.169 329.075 192.223 349.314 160.488C358.675 145.81 366.507 124.616 371.929 104.808C376.351 88.649 369.675 67.6521 364.016 54.8106C361.153 48.3152 356.326 44.0144 352.236 41.4538C348.529 39.1335 336.918 39.3853 320.539 41.1616C293.01 44.1471 271.833 72.1121 259.961 79.6094C250.602 85.5191 241.537 102.347 234.578 117.504C225.768 136.691 226.096 165.802 229.156 187.74C230.967 200.721 243.474 213.108 253.732 224.658C261.295 233.172 281.83 243.343 305.645 254.87C319.477 261.565 338.225 262.89 362.54 263.405C380.259 263.781 400.265 259.845 426.34 253.716C453.882 247.243 478.206 235.269 496.13 225.542C514.969 215.318 525.927 200.928 534.163 190.393C544.101 177.681 559.239 150.792 565.705 127.377C568.249 118.169 567.512 105.592 565.99 93.5505C565.402 88.904 561.422 88.1063 557.316 87.5834C541.008 85.5067 519.499 91.6435 499.129 102.394C482.89 110.963 478.836 129.568 468.363 153.852C462.844 166.65 460.381 176.229 458.844 194.799C455.258 238.092 459.843 270.549 462.911 277.2C465.599 283.028 480.236 295.094 505.55 312.749C546.576 341.363 568.497 340.816 594.764 341.839C609.794 342.424 635.181 341.339 653.328 340.062C700.84 336.72 720.75 322.392 728.194 313.18C740.957 297.383 740.774 281.914 741.043 272.925C741.339 263.027 733.622 257.277 730.3 253.693C727.166 250.312 713.214 250.079 688.431 255.408C674.134 258.482 659.08 271.395 634.735 293.887C610.389 316.379 577.909 350.382 560.415 369.421C533.247 398.989 536.754 425.863 538.284 440.98C539.309 451.098 563.237 472.892 607.537 500.151C645.328 523.406 680.749 523.305 690.984 525.096C710.252 528.469 732.008 524.873 743.05 521.79C754.991 518.455 760.751 511.54 764.85 508.218C768.231 505.477 764.396 495.699 758.514 485.195C748.711 467.691 712.63 480.243 704.164 484.08C689.213 490.856 674.705 508.418 662.394 517.637C652.685 524.909 648.037 537.607 641.355 553.755C635.61 567.64 635.181 593.372 638.495 617.563C645.915 638.602 653.62 651.966 657.196 656.311C659.249 658.626 661.786 661.163 667.477 663.778" stroke="black" stroke-width="48" stroke-linecap="round"/>
</svg>
