<svg width="431" height="333" viewBox="0 0 431 333" fill="none" xmlns="http://www.w3.org/2000/svg">
<path d="M24 308.514C24 302.9 33.1352 270.343 39.879 245.006C42.2059 236.263 47.5455 209.288 53.6894 166.319C62.1939 106.84 61.4174 100.404 62.4401 96.059C62.9834 93.7509 63.4628 91.2069 65.5006 96.7511C72.4149 115.563 77.2887 137.221 85.9548 157.883C100.224 191.903 114.199 215.686 119.058 222.345C121.113 225.16 123.411 225.959 128.009 219.123C153.368 181.423 154.169 165.027 162.897 141.235C168.831 125.059 174.162 101.08 179.314 78.6575C182.173 66.2154 185.481 60.4179 185.735 58.8646C186.315 55.3086 187.019 100.035 187.78 154.1C195.693 190.51 207.996 222.268 214.163 236.947C216.208 241.292 219.253 247.889 223.929 256.225" stroke="black" stroke-width="48" stroke-linecap="round"/>
<path d="M296.21 260.839C296.21 259.824 296.21 240.523 295.957 210.041C295.825 194.26 294.673 167.764 294.419 132.408C294.157 95.922 295.165 59.895 299.509 57.5958C309.161 52.4882 321.248 47.0996 337.934 40.1713C347.419 36.2332 355.635 31.1976 365.378 26.0686C367.954 25.0306 370.492 24.523 373.068 24.2616C375.644 24.0002 378.181 24.0002 380.796 24.0002" stroke="black" stroke-width="48" stroke-linecap="round"/>
<path d="M319.279 137.806C323.354 136.283 346.777 127.102 366.9 118.351C374.06 115.783 381.272 114.737 387.67 114.483C390.515 114.229 392.545 113.722 394.637 113.199" stroke="black" stroke-width="48" stroke-linecap="round"/>
<path d="M316.203 257.763C320.279 255.21 332.536 248.074 345.378 239.592C356.225 232.428 364.863 228.05 375.113 224.459C388.454 216.255 396.667 212.656 400.758 211.379C402.819 210.61 404.849 209.595 406.94 208.55" stroke="black" stroke-width="48" stroke-linecap="round"/>
</svg>
