<svg width="254" height="246" viewBox="0 0 254 246" fill="none" xmlns="http://www.w3.org/2000/svg">
<path d="M60.6917 150.993C68.17 147.239 85.0733 143.486 104.827 134.569C121.16 127.195 134.006 117.186 147.65 105.418C159.432 90.8288 166.035 79.541 167.912 72.0346C168.857 68.2532 169.788 64.5282 170.748 52.2247" stroke="black" stroke-width="48" stroke-linecap="round"/>
<path d="M49.4041 221.541C61.5665 221.541 82.2513 217.816 98.7174 212.624C120.877 205.636 135.868 199.925 150.938 190.542C166.466 180.873 179.157 170.803 192.801 159.035C205.514 144.446 216.802 129.433 222.46 114.364C224.336 110.582 227.13 106.857 230.008 103.02" stroke="black" stroke-width="48" stroke-linecap="round"/>
<path d="M24.0065 86.0878C34.2784 82.3628 60.579 69.2127 79.4436 52.7608C83.2391 48.4996 86.0328 44.7746 88.4032 40.9931C90.7737 37.2117 92.6362 33.4868 97.3771 24.0052" stroke="black" stroke-width="48" stroke-linecap="round"/>
</svg>
