<svg width="143" height="467" viewBox="0 0 143 467" fill="none" xmlns="http://www.w3.org/2000/svg">
<path d="M133.625 248.208C133.625 282.729 105.646 310.708 71.125 310.708C36.6042 310.708 8.625 282.729 8.625 248.208C8.625 213.688 36.6042 185.708 71.125 185.708C105.646 185.708 133.625 213.688 133.625 248.208ZM91.9583 8.625C80.4583 -2.875 61.7917 -2.875 50.2917 8.625L8.625 50.2917C-2.875 61.7917 -2.875 80.4583 8.625 91.9583L50.2917 133.625C61.7917 145.125 80.4583 145.125 91.9583 133.625L133.625 91.9583C145.125 80.4583 145.125 61.7917 133.625 50.2917L91.9583 8.625ZM102.375 341.958H39.875C22.625 341.958 8.625 355.958 8.625 373.208V435.708C8.625 452.958 22.625 466.958 39.875 466.958H102.375C119.625 466.958 133.625 452.958 133.625 435.708V373.208C133.625 355.958 119.625 341.958 102.375 341.958Z" fill="black"/>
</svg>
