<svg width="189" height="289" viewBox="0 0 189 289" fill="none" xmlns="http://www.w3.org/2000/svg">
<path d="M151.068 21.7537C146.867 21.1562 128.87 19.9431 113.996 22.9487C96.3996 26.5042 74.515 33.7762 60.5822 40.4393C47.7134 46.5936 38.2663 63.2893 28.2808 81.4408C20.4773 95.6258 21.3189 109.786 21.0021 140.838C20.8156 159.111 33.3414 176.815 42.6933 187.987C51.819 198.888 64.7014 201.585 75.882 206.718C90.3127 213.343 103.919 217.265 116.621 219.709C128.449 221.985 138.937 224.543 146.795 224.842C152.55 225.061 131.803 232.945 123.04 240.812C112.741 250.057 105.223 256.483 97.0844 264.35C95.0715 266.296 93.1644 267.962 93.7348 267.989C103.124 268.436 111.741 247.574 119.672 235.145C126.399 224.6 123.909 197.565 127.213 181.125C127.724 178.583 128.725 176.308 130.228 175.376C131.731 174.443 134.121 175.041 135.949 176.544C143.463 182.718 144.984 198.507 155.558 211.525C157.695 214.259 158.89 216.649 160.103 219.075C161.316 221.502 162.511 223.892 167.364 229.975" stroke="black" stroke-width="42" stroke-linecap="round"/>
</svg>
