<svg width="181" height="275" viewBox="0 0 181 275" fill="none" xmlns="http://www.w3.org/2000/svg">
<path d="M21 21C37.1507 21 71.0455 23.39 81.013 26.4228C93.3467 30.1756 111.422 38.4544 125.373 46.3215C135.428 51.9913 142.855 66.8087 150.441 78.5958C156.278 87.6641 158.571 103.601 159.82 149.681C160.277 166.528 146.585 179.031 138.718 191.162C132.191 201.227 122.431 207.458 111.278 214.709C98.5856 222.961 86.8342 223.79 75.9705 225.292C60.3766 227.45 53.0117 227.411 49.3905 225.618C39.1188 220.534 51.7805 204.525 53.2833 194.856C53.6589 192.439 53.5911 190.04 54.7861 190.9C65.7369 198.781 65.0343 212.274 68.6646 222.242C73.2217 234.754 84.3355 243.055 89.197 251.23C93.8322 259.024 70.5386 246.748 60.8698 243.716C56.0536 242.511 50.0061 241.896 43.678 241C40.9349 240.103 39.1423 238.311 35.4849 232.843" stroke="black" stroke-width="42" stroke-linecap="round"/>
</svg>
